<?xml version="1.0" encoding="UTF-8"?>
<!DOCTYPE svg PUBLIC "-//W3C//DTD SVG 1.1//EN" "http://www.w3.org/Graphics/SVG/1.1/DTD/svg11.dtd">
<!-- Creator: CorelDRAW -->
<svg xmlns="http://www.w3.org/2000/svg" xml:space="preserve" width="3.39372in" height="0.622098in" version="1.1" style="shape-rendering:geometricPrecision; text-rendering:geometricPrecision; image-rendering:optimizeQuality; fill-rule:evenodd; clip-rule:evenodd"
viewBox="0 0 3393.72 622.1"
 xmlns:xlink="http://www.w3.org/1999/xlink"
 xmlns:xodm="http://www.corel.com/coreldraw/odm/2003">
 <defs>
  <style type="text/css">
   <![CDATA[
    .fil1 {fill:red}
    .fil0 {fill:white;fill-rule:nonzero}
   ]]>
  </style>
 </defs>
 <g id="Layer_x0020_1">
  <metadata id="CorelCorpID_0Corel-Layer"/>
  <path class="fil0" d="M100.11 492.71c20.02,0 40.04,-2.58 59.42,-12.27l41.33 -48.44 0 54.25 100.76 0 0 -186.01c0,-109.8 -48.44,-149.19 -165.99,-149.19 -39.4,0 -75.57,5.81 -105.92,17.44l-5.81 78.8c24.54,-9.04 58.77,-19.37 102.69,-19.37 48.44,0 74.27,19.37 74.27,49.08l0 7.11 -91.07 11.63c-88.48,11.63 -109.8,51.02 -109.8,97.52 0,58.13 32.3,99.46 100.11,99.46zm2.58 -105.28c0,-18.73 9.04,-30.35 31.65,-33.58l66.52 -9.69 0 38.11c-12.92,18.09 -31.65,41.33 -61.36,41.33 -27.13,0 -36.81,-16.15 -36.81,-36.17zm306.78 98.82l100.75 0 0 -235.09 75.57 0 0 -78.8 -75.57 0 0 -16.79c0,-41.34 10.33,-55.55 47.79,-55.55 8.4,0 18.73,0.65 34.88,5.81l-4.52 -77.5c-16.15,-5.81 -43.27,-7.11 -51.02,-7.11 -83.31,0 -127.88,32.3 -127.88,122.72l0 28.41 -60.07 0 0 78.8 60.07 0 0 235.09zm234.44 0l100.76 0 0 -213.13c15.5,-17.44 45.21,-23.25 86.54,-23.25l20.67 0 0 -100.75c-22.61,0 -41.33,5.17 -61.36,13.56l-45.85 57.48 0 -62.65 -100.76 0 0 328.74zm416.58 6.46c102.04,0 173.73,-56.19 173.73,-171.15 0,-114.31 -71.69,-170.5 -173.73,-170.5 -101.4,0 -173.09,56.19 -173.09,170.5 0,114.96 71.69,171.15 173.09,171.15zm-69.11 -171.15c0,-65.87 27.77,-86.54 69.11,-86.54 41.33,0 69.75,20.67 69.75,86.54 0,66.52 -28.42,87.19 -69.75,87.19 -41.34,0 -69.11,-20.67 -69.11,-87.19z"/>
  <path class="fil1" d="M1412.67 3.15l1921.16 0c32.82,0 59.68,26.85 59.68,59.68l0 499.59c0,32.83 -26.85,59.68 -59.68,59.68l-1921.16 0c-32.83,0 -59.68,-26.85 -59.68,-59.68l0 -499.59c0,-32.82 26.85,-59.68 59.68,-59.68z"/>
  <g id="_2743294034240">
   <image x="1352.81" y="-0" width="2040.91" height="313.24" xlink:href="black background_Images\black background_ImgID1.png"/>
  </g>
  <path class="fil0" d="M1751.67 428.01c0,37.72 -9.43,67.12 -28.29,87.65 -19.41,20.53 -48.81,31.07 -88.76,31.07 -21.63,0 -41.05,-3.33 -58.24,-9.43 -17.2,-6.66 -33.84,-16.08 -48.81,-28.84 -1.67,-1.11 -2.22,-2.22 -2.22,-3.88 0,-1.67 0.56,-3.33 1.67,-4.99l16.09 -23.85c1.11,-1.67 2.78,-2.78 4.44,-2.78 1.11,0 2.77,0.56 4.44,1.67 26.07,20.52 53.25,31.06 82.65,31.06 24.96,0 43.83,-6.66 55.47,-19.41 11.65,-13.31 16.64,-33.84 16.09,-62.13l0 -13.31c-10.54,4.99 -21.63,8.87 -34.39,11.65 -12.76,2.78 -24.96,4.44 -36.61,4.44 -34.95,0 -63.8,-9.43 -85.99,-28.85 -22.19,-19.41 -33.28,-47.15 -33.28,-84.31l0 -55.48c0,-39.38 11.65,-68.78 34.39,-87.64 22.74,-18.31 52.7,-27.74 89.87,-27.74 18.86,0 37.72,1.66 56.58,5.54 18.31,3.89 34.95,9.43 49.93,16.09 3.33,1.11 4.99,3.33 4.99,7.21l0 256.28zm-189.72 -114.27c0,24.96 6.66,43.27 20.53,54.92 13.87,11.65 32.17,17.19 56.03,17.19 12.76,0 25.52,-1.66 37.72,-4.43 12.2,-2.78 22.19,-7.21 29.96,-12.2l0 -175.85c-7.77,-2.78 -17.75,-5 -30.51,-6.66 -12.76,-1.67 -24.41,-2.78 -34.95,-2.78 -24.96,0 -44.37,5.55 -58.24,17.2 -13.87,11.65 -20.53,31.07 -20.53,57.13l0 55.48zm261.28 -142.01c13.31,-9.43 28.85,-16.64 47.15,-21.63 17.75,-4.99 37.17,-7.21 57.69,-7.21 34.95,0 62.13,8.87 81.54,27.18 19.41,18.31 28.84,45.49 28.84,80.44l0 166.42c0,3.88 -1.66,6.1 -4.99,7.21 -13.87,4.99 -30.51,9.43 -49.37,12.76 -18.86,3.33 -38.28,4.99 -57.69,4.99 -34.39,0 -62.69,-7.21 -85.43,-22.19 -22.74,-14.98 -33.84,-37.72 -33.84,-68.78 0,-28.29 10.54,-50.48 32.18,-65.46 21.63,-14.98 50.48,-22.74 87.09,-22.74 19.41,0 41.61,2.22 66.57,6.66l0 -17.75c0,-22.74 -5,-39.94 -15.53,-51.03 -10.54,-11.1 -27.18,-16.65 -51.04,-16.65 -14.98,0 -28.85,1.67 -42.71,5.55 -13.87,3.89 -25.52,8.88 -36.06,14.98 -0.55,0.55 -2.22,1.11 -3.88,1.11 -1.67,0 -3.33,-1.11 -4.44,-2.78l-16.09 -23.3c-1.67,-3.33 -1.67,-6.1 0,-7.76zm29.4 179.17c0,16.09 6.66,28.85 20.52,37.17 13.31,8.88 31.07,13.31 53.26,13.31 22.19,0 44.38,-3.33 66.57,-9.98l0 -83.21c-23.85,-4.44 -46.04,-6.66 -66.57,-6.66 -24.96,0 -43.27,4.44 -55.47,12.76 -12.2,8.87 -18.31,21.07 -18.31,36.61zm243.52 84.87c-3.88,0 -6.1,-2.22 -6.1,-6.1l0 -16.64c0,-3.33 1.11,-6.1 2.77,-7.77l154.21 -215.23 -142.56 0c-3.88,0 -6.1,-2.22 -6.1,-6.66l0 -27.74c0,-4.44 2.22,-6.65 6.1,-6.65l199.15 0c4.44,0 6.66,2.22 6.66,6.65l0 14.98c0,2.77 -1.11,4.99 -2.78,7.76l-155.32 216.9 154.77 0c3.88,0 6.1,2.22 6.1,6.1l0 28.29c0,3.88 -2.22,6.1 -6.1,6.1l-210.8 0z"/>
  <path class="fil0" d="M2589.87 307.63c0,4.44 -2.22,6.66 -6.1,6.66l-181.4 0 0 23.3c0,20.52 6.66,36.06 20.52,47.15 13.31,11.09 30.51,16.64 51.59,16.64 17.2,0 32.73,-2.77 46.6,-8.32 13.31,-5.54 26.07,-13.31 38.27,-22.74 0.56,-0.55 2.22,-1.11 3.89,-1.11 2.78,0 4.44,1.11 4.99,2.77l16.09 21.08c1.11,1.67 1.66,2.78 1.66,3.89 0,1.67 -1.1,3.33 -2.77,4.99 -31.62,26.63 -68.23,39.94 -109.83,39.94 -20.52,0 -39.94,-3.88 -57.69,-12.2 -17.75,-7.77 -32.17,-19.41 -42.71,-35.5 -11.09,-15.53 -16.65,-34.39 -16.65,-56.58l0 -84.32c0,-24.41 5.55,-44.93 16.09,-61.57 10.54,-16.09 24.96,-28.29 43.27,-36.61 17.76,-8.32 37.17,-12.2 58.25,-12.2 21.07,0 40.49,3.88 58.24,12.2 17.19,8.32 31.62,20.52 42.16,36.61 10.54,16.64 15.54,37.17 15.54,61.57l0 54.36zm-44.38 -54.36c0,-22.74 -6.66,-39.94 -19.41,-51.59 -13.31,-11.65 -30.51,-17.75 -52.14,-17.75 -21.64,0 -39.39,5.55 -52.15,17.2 -12.76,11.65 -19.41,29.4 -19.41,52.14l0 23.3 143.12 0 0 -23.3zm152 88.2c0,18.31 4.44,32.73 13.87,42.71 9.43,10.54 22.19,15.53 39.39,15.53l26.63 -1.11c4.44,0 6.66,2.22 6.66,6.1l0 29.4c0,3.89 -1.67,6.1 -5.55,6.66l-29.95 1.11c-29.4,0 -52.7,-8.32 -69.9,-24.41 -17.75,-16.09 -26.63,-41.05 -26.63,-73.78l0 -258.5c0,-4.44 2.22,-6.66 6.66,-6.66l28.85 0c3.33,0 5.55,2.22 6.1,6.1l3.88 67.12 72.11 0c3.88,0 6.1,2.22 6.1,6.1l0 27.74c0,4.44 -2.22,6.66 -6.1,6.66l-72.11 0 0 149.22zm178.07 0c0,18.31 4.44,32.73 13.87,42.71 9.43,10.54 22.19,15.53 39.39,15.53l26.63 -1.11c4.44,0 6.66,2.22 6.66,6.1l0 29.4c0,3.89 -1.67,6.1 -5.55,6.66l-29.95 1.11c-29.4,0 -52.7,-8.32 -69.9,-24.41 -17.75,-16.09 -26.63,-41.05 -26.63,-73.78l0 -258.5c0,-4.44 2.22,-6.66 6.65,-6.66l28.85 0c3.33,0 5.55,2.22 6.1,6.1l3.89 67.12 72.11 0c3.88,0 6.1,2.22 6.1,6.1l0 27.74c0,4.44 -2.22,6.66 -6.1,6.66l-72.11 0 0 149.22z"/>
  <path class="fil0" d="M3230.57 307.63c0,4.44 -2.22,6.66 -6.1,6.66l-181.39 0 0 23.3c0,20.52 6.65,36.06 20.52,47.15 13.31,11.09 30.51,16.64 51.59,16.64 17.2,0 32.73,-2.77 46.6,-8.32 13.31,-5.54 26.07,-13.31 38.28,-22.74 0.56,-0.55 2.22,-1.11 3.88,-1.11 2.78,0 4.44,1.11 4.99,2.77l16.09 21.08c1.11,1.67 1.66,2.78 1.66,3.89 0,1.67 -1.11,3.33 -2.77,4.99 -31.62,26.63 -68.23,39.94 -109.83,39.94 -20.52,0 -39.94,-3.88 -57.69,-12.2 -17.75,-7.77 -32.17,-19.41 -42.71,-35.5 -11.09,-15.53 -16.65,-34.39 -16.65,-56.58l0 -84.32c0,-24.41 5.55,-44.93 16.09,-61.57 10.54,-16.09 24.96,-28.29 43.27,-36.61 17.75,-8.32 37.17,-12.2 58.25,-12.2 21.08,0 40.5,3.88 58.24,12.2 17.2,8.32 31.62,20.52 42.16,36.61 10.54,16.64 15.54,37.17 15.54,61.57l0 54.36zm-44.38 -54.36c0,-22.74 -6.65,-39.94 -19.41,-51.59 -13.31,-11.65 -30.51,-17.75 -52.14,-17.75 -21.64,0 -39.39,5.55 -52.15,17.2 -12.76,11.65 -19.41,29.4 -19.41,52.14l0 23.3 143.11 0 0 -23.3z"/>
 </g>
</svg>
